<svg xmlns="http://www.w3.org/2000/svg" width="200" height="172" fill="none" viewBox="0 0 269 172"><path stroke="#FFC107" stroke-dasharray="4 4" stroke-linecap="round" stroke-width="2" d="M1 1h258"/><path fill="#FFC107" d="M260.293 171.707a1 1 0 0 0 1.414 0l6.364-6.364a.999.999 0 1 0-1.414-1.414L261 169.586l-5.657-5.657a.999.999 0 1 0-1.414 1.414zM260 5a1 1 0 0 0 2 0zm2 4a1 1 0 0 0-2 0zm-2 4a1 1 0 0 0 2 0zm2 4a1 1 0 0 0-2 0zm-2 4a1 1 0 0 0 2 0zm2 4a1 1 0 0 0-2 0zm-2 4a1 1 0 0 0 2 0zm2 4a1 1 0 0 0-2 0zm-2 4a1 1 0 0 0 2 0zm2 4a1 1 0 0 0-2 0zm-2 4a1 1 0 0 0 2 0zm2 4a1 1 0 0 0-2 0zm-2 4a1 1 0 0 0 2 0zm2 4a1 1 0 0 0-2 0zm-2 4a1 1 0 0 0 2 0zm2 4a1 1 0 0 0-2 0zm-2 4a1 1 0 0 0 2 0zm2 4a1 1 0 0 0-2 0zm-2 4a1 1 0 0 0 2 0zm2 4a1 1 0 0 0-2 0zm-2 4a1 1 0 0 0 2 0zm2 4a1 1 0 0 0-2 0zm-2 4a1 1 0 0 0 2 0zm2 4a1 1 0 0 0-2 0zm-2 4a1 1 0 0 0 2 0zm2 4a1 1 0 0 0-2 0zm-2 4a1 1 0 0 0 2 0zm2 4a1 1 0 0 0-2 0zm-2 4a1 1 0 0 0 2 0zm2 4a1 1 0 0 0-2 0zm-2 4a1 1 0 0 0 2 0zm2 4a1 1 0 0 0-2 0zm-2 4a1 1 0 0 0 2 0zm2 4a1 1 0 0 0-2 0zm-2 4a1 1 0 0 0 2 0zm2 4a1 1 0 0 0-2 0zm-2 4a1 1 0 0 0 2 0zm2 4a1 1 0 0 0-2 0zm-2 4a1 1 0 0 0 2 0zm2 4a1 1 0 0 0-2 0zm-2 4a1 1 0 0 0 2 0zm2 4a1 1 0 0 0-2 0zM260 3v2h2V3zm0 6v4h2V9zm0 8v4h2v-4zm0 8v4h2v-4zm0 8v4h2v-4zm0 8v4h2v-4zm0 8v4h2v-4zm0 8v4h2v-4zm0 8v4h2v-4zm0 8v4h2v-4zm0 8v4h2v-4zm0 8v4h2v-4zm0 8v4h2v-4zm0 8v4h2v-4zm0 8v4h2v-4zm0 8v4h2v-4zm0 8v4h2v-4zm0 8v4h2v-4zm0 8v4h2v-4zm0 8v4h2v-4zm0 8v4h2v-4zm0 8v2h2v-2z"/></svg>