<svg xmlns="http://www.w3.org/2000/svg" width="200" height="178" fill="none" viewBox="0 0 263 178"><path stroke="#FFC107" stroke-dasharray="4 4" stroke-linecap="round" stroke-width="2" d="M262 1v168"/><path fill="#FFC107" d="M.293 169.293a1 1 0 0 0 0 1.414l6.364 6.364a1 1 0 1 0 1.414-1.414L2.414 170l5.657-5.657a1 1 0 1 0-1.414-1.414zM259.03 169a1 1 0 0 0 0 2zm-3.939 2a1 1 0 0 0 0-2zm-3.939-2a1 1 0 1 0 0 2zm-3.94 2a1 1 0 0 0 0-2zm-3.939-2a1 1 0 1 0 0 2zm-3.94 2a1 1 0 1 0 0-2zm-3.939-2a1 1 0 0 0 0 2zm-3.939 2a1 1 0 0 0 0-2zm-3.94-2a1 1 0 0 0 0 2zm-3.939 2a1 1 0 0 0 0-2zm-3.94-2a1 1 0 0 0 0 2zm-3.939 2a1 1 0 0 0 0-2zm-3.939-2a1 1 0 1 0 0 2zm-3.94 2a1 1 0 0 0 0-2zm-3.939-2a1 1 0 0 0 0 2zm-3.94 2a1 1 0 1 0 0-2zM196 169a1 1 0 0 0 0 2zm-3.939 2a1 1 0 0 0 0-2zm-3.94-2a1 1 0 0 0 0 2zm-3.939 2a1 1 0 0 0 0-2zm-3.94-2a1 1 0 0 0 0 2zm-3.939 2a1 1 0 0 0 0-2zm-3.939-2a1 1 0 1 0 0 2zm-3.94 2a1 1 0 1 0 0-2zm-3.939-2a1 1 0 0 0 0 2zm-3.94 2a1 1 0 1 0 0-2zm-3.939-2a1 1 0 0 0 0 2zm-3.939 2a1 1 0 0 0 0-2zm-3.94-2a1 1 0 0 0 0 2zm-3.939 2a1 1 0 0 0 0-2zm-3.939-2a1 1 0 1 0 0 2zm-3.94 2a1 1 0 0 0 0-2zm-3.939-2a1 1 0 1 0 0 2zm-3.94 2a1 1 0 1 0 0-2zm-3.939-2a1 1 0 0 0 0 2zm-3.939 2a1 1 0 0 0 0-2zm-3.94-2a1 1 0 0 0 0 2zm-3.939 2a1 1 0 0 0 0-2zm-3.94-2a1 1 0 0 0 0 2zm-3.939 2a1 1 0 0 0 0-2zm-3.939-2a1 1 0 1 0 0 2zm-3.94 2a1 1 0 0 0 0-2zm-3.94-2a1 1 0 0 0 0 2zm-3.939 2a1 1 0 0 0 0-2zm-3.939-2a1 1 0 0 0 0 2zm-3.94 2a1 1 0 0 0 0-2zm-3.939-2a1 1 0 0 0 0 2zm-3.94 2a1 1 0 0 0 0-2zm-3.939-2a1 1 0 0 0 0 2zM66 171a1 1 0 0 0 0-2zm-3.94-2a1 1 0 0 0 0 2zm-3.939 2a1 1 0 0 0 0-2zm-3.94-2a1 1 0 0 0 0 2zm-3.938 2a1 1 0 0 0 0-2zm-3.94-2a1 1 0 0 0 0 2zm-3.94 2a1 1 0 0 0 0-2zm-3.939-2a1 1 0 0 0 0 2zm-3.94 2a1 1 0 0 0 0-2zm-3.939-2a1 1 0 0 0 0 2zm-3.939 2a1 1 0 0 0 0-2zm-3.94-2a1 1 0 0 0 0 2zm-3.939 2a1 1 0 0 0 0-2zm-3.939-2a1 1 0 0 0 0 2zm-3.94 2a1 1 0 0 0 0-2zm-3.939-2a1 1 0 0 0 0 2zm-3.94 2a1 1 0 0 0 0-2zM261 169h-1.97v2H261zm-5.909 0h-3.939v2h3.939zm-7.879 0h-3.939v2h3.939zm-7.879 0h-3.939v2h3.939zm-7.878 0h-3.94v2h3.94zm-7.879 0h-3.94v2h3.94zm-7.879 0h-3.939v2h3.939zm-7.879 0h-3.939v2h3.939zm-7.879 0H196v2h3.939zm-7.878 0h-3.94v2h3.94zm-7.879 0h-3.94v2h3.94zm-7.879 0h-3.939v2h3.939zm-7.879 0h-3.939v2h3.939zm-7.879 0h-3.939v2h3.939zm-7.878 0h-3.94v2h3.94zm-7.879 0h-3.939v2h3.939zm-7.879 0h-3.939v2h3.939zm-7.879 0h-3.939v2h3.939zm-7.878 0h-3.94v2h3.94zm-7.879 0h-3.94v2h3.94zm-7.879 0h-3.939v2h3.939zm-7.879 0h-3.94v2h3.94zm-7.879 0h-3.939v2h3.94zm-7.878 0h-3.94v2h3.94zm-7.88 0H69.94v2h3.94zM66 169h-3.94v2H66zm-7.879 0h-3.94v2h3.94zm-7.879 0h-3.939v2h3.94zm-7.878 0h-3.94v2h3.94zm-7.88 0h-3.939v2h3.94zm-7.878 0h-3.94v2h3.94zm-7.879 0h-3.939v2h3.94zm-7.878 0h-3.94v2h3.94zm-7.88 0H1v2h1.97z"/></svg>