<svg
              xmlns="http://www.w3.org/2000/svg"
              width="25"
              height="25"
              viewBox="0 0 25 25"
              fill="none"
            >
              <g clip-path="url(#clip0_2425_1125)">
                <path
                  fill-rule="evenodd"
                  clip-rule="evenodd"
                  d="M12.5 0.996582C5.98692 0.996582 0.705475 6.27685 0.705475 12.7911C0.705475 18.0024 4.08497 22.4233 8.7713 23.9831C9.36055 24.0925 9.57696 23.7272 9.57696 23.4157C9.57696 23.1345 9.56602 22.2054 9.56094 21.2198C6.27969 21.9333 5.58731 19.8282 5.58731 19.8282C5.05079 18.4649 4.27774 18.1024 4.27774 18.1024C3.20743 17.3704 4.3584 17.3856 4.3584 17.3856C5.54258 17.4687 6.16641 18.6011 6.16641 18.6011C7.21837 20.4038 8.92559 19.8827 9.59864 19.5815C9.7045 18.8192 10.0102 18.2987 10.3475 18.0042C7.72774 17.7064 4.97364 16.6948 4.97364 12.1755C4.97364 10.8878 5.43458 9.83565 6.18907 9.00947C6.06641 8.7126 5.6627 7.51299 6.30313 5.88838C6.30313 5.88838 7.29337 5.57139 9.54727 7.09736C10.4883 6.83584 11.4975 6.70439 12.5 6.6999C13.502 6.70439 14.5117 6.83545 15.4545 7.09697C17.7057 5.571 18.6947 5.88799 18.6947 5.88799C19.3367 7.5124 18.933 8.71221 18.8106 9.00908C19.5668 9.83525 20.0244 10.8874 20.0244 12.1751C20.0244 16.7052 17.2652 17.7024 14.6389 17.9946C15.0621 18.3606 15.4391 19.0786 15.4391 20.1788C15.4391 21.7569 15.4254 23.0271 15.4254 23.4155C15.4254 23.7294 15.6379 24.0972 16.2356 23.9813C20.9191 22.42 24.2947 18.0005 24.2947 12.7911C24.2945 6.27725 19.0137 0.996582 12.5 0.996582Z"
                  fill="#181616"
                />
                <path
                  d="M5.17265 17.9309C5.14668 17.9895 5.05449 18.007 4.9705 17.967C4.88457 17.9287 4.83671 17.8488 4.86445 17.79C4.88984 17.7295 4.98222 17.7129 5.06757 17.7533C5.15351 17.7918 5.20234 17.8725 5.17246 17.9311L5.17265 17.9309ZM5.65039 18.4639C5.59433 18.516 5.48437 18.4918 5.40976 18.4092C5.33242 18.3271 5.31796 18.2172 5.37519 18.1643C5.43339 18.1123 5.54003 18.1369 5.61738 18.2189C5.69433 18.3021 5.70957 18.4111 5.65058 18.4641L5.65039 18.4639ZM6.11562 19.143C6.04335 19.1934 5.925 19.1463 5.85195 19.0414C5.77968 18.9363 5.77968 18.8103 5.8539 18.7602C5.92675 18.7098 6.04335 18.7553 6.11757 18.8592C6.18945 18.9656 6.18945 19.0918 6.11562 19.143ZM6.75254 19.7994C6.68808 19.8707 6.55019 19.8516 6.44941 19.7545C6.34648 19.6594 6.31777 19.524 6.38242 19.4529C6.44804 19.3814 6.58652 19.4014 6.68789 19.4978C6.79082 19.5928 6.82187 19.7283 6.75293 19.7992L6.75254 19.7994ZM7.63144 20.1805C7.60273 20.2728 7.47031 20.3148 7.33652 20.2754C7.20312 20.235 7.11582 20.127 7.14316 20.0336C7.1705 19.9404 7.3039 19.8969 7.43847 19.9389C7.57187 19.9791 7.65918 20.0865 7.63144 20.1805ZM8.59687 20.251C8.60019 20.3482 8.48691 20.4287 8.34687 20.4307C8.20566 20.434 8.0914 20.3551 8.09003 20.2594C8.09003 20.1611 8.20097 20.0816 8.34199 20.0789C8.48203 20.0764 8.59707 20.1545 8.59707 20.2508L8.59687 20.251ZM9.49492 20.0982C9.51171 20.193 9.41425 20.2904 9.275 20.3164C9.13828 20.3418 9.01132 20.2828 8.99375 20.1889C8.97695 20.0916 9.07617 19.9941 9.21289 19.9689C9.35234 19.9449 9.47734 20.002 9.49492 20.0982Z"
                  fill="#181616"
                />
              </g>
              <defs>
                <clipPath id="clip0_2425_1125">
                  <rect width="25" height="25" fill="white" />
                </clipPath>
              </defs>
            </svg>