<svg
                      xmlns="http://www.w3.org/2000/svg"
                      width="25"
                      height="25"
                      viewBox="0 0 25 25"
                      fill="none"
                    >
                      <path
                        d="M8.12501 2.08325H16.875C20.2083 2.08325 22.9167 4.79159 22.9167 8.12492V16.8749C22.9167 18.4773 22.2801 20.014 21.1471 21.147C20.0141 22.2801 18.4774 22.9166 16.875 22.9166H8.12501C4.79168 22.9166 2.08334 20.2083 2.08334 16.8749V8.12492C2.08334 6.52257 2.71987 4.98585 3.85291 3.85282C4.98594 2.71978 6.52266 2.08325 8.12501 2.08325ZM7.91668 4.16659C6.92211 4.16659 5.96829 4.56167 5.26503 5.26493C4.56176 5.9682 4.16668 6.92202 4.16668 7.91658V17.0833C4.16668 19.1562 5.84376 20.8333 7.91668 20.8333H17.0833C18.0779 20.8333 19.0317 20.4382 19.735 19.7349C20.4383 19.0316 20.8333 18.0778 20.8333 17.0833V7.91658C20.8333 5.84367 19.1563 4.16659 17.0833 4.16659H7.91668ZM17.9688 5.72909C18.3141 5.72909 18.6453 5.86627 18.8895 6.11046C19.1337 6.35464 19.2708 6.68583 19.2708 7.03117C19.2708 7.3765 19.1337 7.70769 18.8895 7.95188C18.6453 8.19607 18.3141 8.33325 17.9688 8.33325C17.6234 8.33325 17.2922 8.19607 17.048 7.95188C16.8039 7.70769 16.6667 7.3765 16.6667 7.03117C16.6667 6.68583 16.8039 6.35464 17.048 6.11046C17.2922 5.86627 17.6234 5.72909 17.9688 5.72909ZM12.5 7.29158C13.8813 7.29158 15.2061 7.84032 16.1829 8.81707C17.1596 9.79382 17.7083 11.1186 17.7083 12.4999C17.7083 13.8813 17.1596 15.206 16.1829 16.1828C15.2061 17.1595 13.8813 17.7083 12.5 17.7083C11.1187 17.7083 9.79391 17.1595 8.81716 16.1828C7.84041 15.206 7.29168 13.8813 7.29168 12.4999C7.29168 11.1186 7.84041 9.79382 8.81716 8.81707C9.79391 7.84032 11.1187 7.29158 12.5 7.29158ZM12.5 9.37492C11.6712 9.37492 10.8764 9.70416 10.2903 10.2902C9.70425 10.8763 9.37501 11.6711 9.37501 12.4999C9.37501 13.3287 9.70425 14.1236 10.2903 14.7096C10.8764 15.2957 11.6712 15.6249 12.5 15.6249C13.3288 15.6249 14.1237 15.2957 14.7097 14.7096C15.2958 14.1236 15.625 13.3287 15.625 12.4999C15.625 11.6711 15.2958 10.8763 14.7097 10.2902C14.1237 9.70416 13.3288 9.37492 12.5 9.37492Z"
                        fill="black"
                      />
                    </svg>