<svg xmlns="http://www.w3.org/2000/svg" width="25" height="25" viewBox="0 0 25 25" fill="none">
	<path d="M21.645 7.80754C21.655 8.01004 21.6588 8.21504 21.6588 8.41754C21.6588 14.655 16.9125 21.845 8.23375 21.845C5.5675 21.845 3.08875 21.0638 1 19.7238C2.23547 19.8732 3.48827 19.7777 4.6868 19.4426C5.88532 19.1076 7.00608 18.5397 7.985 17.7713C7.00052 17.7527 6.04647 17.4269 5.25622 16.8395C4.46598 16.2521 3.87905 15.4324 3.5775 14.495C4.28508 14.6274 5.0133 14.5996 5.70875 14.4138C4.64077 14.1972 3.6805 13.6181 2.99068 12.7745C2.30087 11.9309 1.92393 10.8748 1.92375 9.78504V9.72629C2.579 10.0908 3.31183 10.2935 4.06125 10.3175C3.06109 9.65076 2.3531 8.62743 2.08177 7.45642C1.81045 6.2854 1.99625 5.05497 2.60125 4.01629C3.78599 5.47436 5.26419 6.66691 6.93985 7.51648C8.6155 8.36604 10.4511 8.85362 12.3275 8.94754C12.2463 8.59456 12.2056 8.23348 12.2063 7.87129C12.2063 7.25183 12.3283 6.63845 12.5654 6.06617C12.8025 5.49388 13.15 4.97391 13.588 4.53595C14.0261 4.09799 14.5462 3.75062 15.1185 3.51368C15.6909 3.27674 16.3043 3.15487 16.9237 3.15504C17.5693 3.15398 18.2082 3.28559 18.8008 3.54168C19.3935 3.79777 19.9271 4.1729 20.3687 4.64379C21.4252 4.43466 22.4383 4.04748 23.365 3.49879C23.0126 4.59154 22.2752 5.51906 21.29 6.10879C22.2253 5.9979 23.1388 5.74763 24 5.36629C23.3673 6.31433 22.5697 7.14118 21.645 7.80754Z" fill="black" />
</svg>
