<svg width="255" height="78" viewBox="0 0 255 78" fill="none" xmlns="http://www.w3.org/2000/svg">
<g id="Amazon svg" clip-path="url(#clip0_2425_1043)">
<path id="path8" fill-rule="evenodd" clip-rule="evenodd" d="M158.197 60.7164C143.379 71.6607 121.9 77.5 103.407 77.5C77.4779 77.5 54.1346 67.8903 36.4746 51.9075C35.0871 50.6506 36.3303 48.9378 37.9953 49.9166C57.0539 61.0278 80.6192 67.7123 104.961 67.7123C121.378 67.7123 139.438 64.3089 156.044 57.2462C158.552 56.1784 160.65 58.8923 158.197 60.7164Z" fill="#FF9900"/>
<path id="path10" fill-rule="evenodd" clip-rule="evenodd" d="M164.358 53.6537C162.47 51.229 151.837 52.5081 147.064 53.0753C145.61 53.2533 145.388 51.9853 146.697 51.0733C155.167 45.1006 169.064 46.8246 170.684 48.8266C172.305 50.8397 170.263 64.7983 162.304 71.4605C161.083 72.4838 159.918 71.9388 160.461 70.5819C162.248 66.1107 166.256 56.0895 164.358 53.6537Z" fill="#FF9900"/>
<path id="path12" fill-rule="evenodd" clip-rule="evenodd" d="M147.397 8.90853V3.10267C147.397 2.224 148.063 1.63452 148.862 1.63452H174.803C175.635 1.63452 176.301 2.23513 176.301 3.10267V8.07435C176.29 8.90853 175.591 9.99852 174.347 11.7225L160.905 30.953C165.9 30.8307 171.173 31.5759 175.702 34.134C176.723 34.7124 177 35.5576 177.078 36.3918V42.587C177.078 43.4323 176.146 44.4221 175.169 43.9105C167.188 39.7174 156.588 39.2614 147.763 43.955C146.864 44.4444 145.92 43.4656 145.92 42.6203V36.7366C145.92 35.7912 145.932 34.1785 146.875 32.7437L162.448 10.3656H148.895C148.063 10.3656 147.397 9.77608 147.397 8.90853Z" fill="black"/>
<path id="path14" fill-rule="evenodd" clip-rule="evenodd" d="M52.7693 45.1339H44.8772C44.1225 45.0783 43.523 44.5111 43.4675 43.7881V3.20274C43.4675 2.3908 44.1446 1.7457 44.9882 1.7457H52.3475C53.1134 1.77905 53.7239 2.36855 53.7794 3.10263V8.40799H53.9237C55.844 3.28059 59.4515 0.889282 64.3133 0.889282C69.2528 0.889282 72.3386 3.28059 74.5586 8.40799C76.4678 3.28059 80.8079 0.889282 85.4588 0.889282C88.7666 0.889282 92.3852 2.25733 94.5941 5.32709C97.0916 8.74165 96.581 13.7022 96.581 18.0511L96.5699 43.6658C96.5699 44.4777 95.8928 45.1339 95.0492 45.1339H87.1682C86.3801 45.0783 85.7474 44.4444 85.7474 43.6658V22.1552C85.7474 20.4424 85.9028 16.1714 85.5254 14.5475C84.9371 11.8225 83.1722 11.0551 80.8856 11.0551C78.9764 11.0551 76.9784 12.3342 76.1681 14.3807C75.3578 16.4272 75.4355 19.8529 75.4355 22.1552V43.6658C75.4355 44.4777 74.7584 45.1339 73.9148 45.1339H66.0338C65.2346 45.0783 64.613 44.4444 64.613 43.6658L64.6019 22.1552C64.6019 17.6284 65.3456 10.9661 59.7401 10.9661C54.068 10.9661 54.29 17.4616 54.29 22.1552V43.6658C54.29 44.4777 53.6129 45.1339 52.7693 45.1339Z" fill="black"/>
<path id="path16" fill-rule="evenodd" clip-rule="evenodd" d="M198.634 0.889282C210.345 0.889282 216.683 10.9661 216.683 23.7791C216.683 36.1582 209.679 45.9792 198.634 45.9792C187.135 45.9792 180.874 35.9024 180.874 23.3453C180.874 10.7103 187.212 0.889282 198.634 0.889282ZM198.701 9.17543C192.884 9.17543 192.518 17.1168 192.518 22.0662C192.518 27.0268 192.44 37.6152 198.634 37.6152C204.75 37.6152 205.039 29.0733 205.039 23.868C205.039 20.4424 204.895 16.3493 203.862 13.1016C202.974 10.2765 201.209 9.17543 198.701 9.17543Z" fill="black"/>
<path id="path18" fill-rule="evenodd" clip-rule="evenodd" d="M231.868 45.1339H224.009C223.221 45.0783 222.588 44.4444 222.588 43.6658L222.577 3.06926C222.644 2.32406 223.298 1.7457 224.098 1.7457H231.413C232.101 1.77905 232.667 2.24621 232.822 2.88018V9.08644H232.967C235.175 3.5364 238.272 0.889282 243.722 0.889282C247.263 0.889282 250.715 2.16835 252.935 5.67189C255 8.91961 255 14.3807 255 18.3069V43.8549C254.911 44.5667 254.256 45.1339 253.479 45.1339H245.565C244.843 45.0783 244.244 44.5445 244.166 43.8549V21.8104C244.166 17.3726 244.677 10.8771 239.227 10.8771C237.307 10.8771 235.542 12.1673 234.665 14.1249C233.555 16.6051 233.411 19.0743 233.411 21.8104V43.6658C233.399 44.4777 232.711 45.1339 231.868 45.1339Z" fill="black"/>
<path id="path28" fill-rule="evenodd" clip-rule="evenodd" d="M126.717 25.7477C126.717 28.8286 126.795 31.3979 125.241 34.1339C123.987 36.3584 121.989 37.7265 119.78 37.7265C116.75 37.7265 114.974 35.413 114.974 31.9985C114.974 25.2583 121.001 24.0349 126.717 24.0349V25.7477ZM134.676 45.0227C134.154 45.4898 133.4 45.5232 132.811 45.2118C130.192 43.0318 129.714 42.0197 128.283 39.9398C123.954 44.3665 120.879 45.6901 115.273 45.6901C108.624 45.6901 103.463 41.5859 103.463 33.3665C103.463 26.9489 106.926 22.5778 111.877 20.4424C116.161 18.5515 122.144 18.2179 126.717 17.6951V16.6719C126.717 14.7922 126.862 12.5677 125.752 10.9439C124.797 9.48685 122.955 8.88624 121.323 8.88624C118.315 8.88624 115.64 10.4322 114.985 13.6355C114.852 14.3473 114.33 15.048 113.608 15.0814L105.96 14.2583C105.317 14.1137 104.595 13.591 104.784 12.6011C106.538 3.30284 114.929 0.5 122.433 0.5C126.273 0.5 131.291 1.52326 134.321 4.43731C138.162 8.02982 137.795 12.8235 137.795 18.0399V30.3635C137.795 34.0672 139.327 35.6911 140.77 37.6931C141.27 38.4049 141.381 39.2613 140.737 39.7952C139.127 41.141 136.263 43.6436 134.687 45.045L134.676 45.0227Z" fill="black"/>
<path id="path30" fill-rule="evenodd" clip-rule="evenodd" d="M23.2545 25.7477C23.2545 28.8286 23.3322 31.3979 21.7782 34.1339C20.5239 36.3584 18.537 37.7265 16.317 37.7265C13.2867 37.7265 11.5218 35.413 11.5218 31.9985C11.5218 25.2583 17.5491 24.0349 23.2545 24.0349V25.7477ZM31.2132 45.0227C30.6915 45.4898 29.9367 45.5232 29.3484 45.2118C26.7288 43.0318 26.2626 42.0197 24.8196 39.9398C20.4906 44.3665 17.427 45.6901 11.8104 45.6901C5.17259 45.6901 0 41.5859 0 33.3665C0 26.9489 3.47429 22.5778 8.41379 20.4424C12.6984 18.5515 18.6813 18.2179 23.2545 17.6951V16.6719C23.2545 14.7922 23.3988 12.5677 22.2999 10.9439C21.3342 9.48685 19.4916 8.88624 17.871 8.88624C14.8629 8.88624 12.1767 10.4322 11.5218 13.6355C11.3886 14.3473 10.8669 15.048 10.1565 15.0814L2.4975 14.2583C1.8537 14.1137 1.1433 13.591 1.3209 12.6011C3.0858 3.30284 11.4663 0.5 18.9699 0.5C22.8105 0.5 27.8277 1.52326 30.858 4.43731C34.6986 8.02982 34.3322 12.8235 34.3322 18.0399V30.3635C34.3322 34.0672 35.8641 35.6911 37.3071 37.6931C37.8177 38.4049 37.9286 39.2613 37.2848 39.7952C35.6753 41.141 32.8116 43.6436 31.2353 45.045L31.2132 45.0227Z" fill="black"/>
</g>
<defs>
<clipPath id="clip0_2425_1043">
<rect width="255" height="77" fill="white" transform="translate(0 0.5)"/>
</clipPath>
</defs>
</svg>
