<svg width="196" height="64" viewBox="0 0 196 64" fill="none" xmlns="http://www.w3.org/2000/svg">
<g id="Canva svg" clip-path="url(#clip0_2425_1032)">
<g id="Group">
<path id="Vector" d="M194.625 43.5172C194.331 43.5172 194.036 43.7141 193.84 44.2063C191.876 49.9156 189.126 53.3609 186.868 53.3609C185.591 53.3609 185.1 51.8844 185.1 49.7188C185.1 44.1078 188.439 32.1969 190.108 26.6844C190.305 25.9953 190.403 25.4047 190.403 24.9125C190.403 23.3375 189.519 22.55 187.359 22.55C185.1 22.55 182.547 23.4359 180.19 27.6688C179.405 23.9281 176.852 22.3531 173.317 22.3531C169.291 22.3531 165.363 25.0109 162.122 29.2438C158.882 33.4766 155.052 34.8547 152.204 34.1656C154.267 29.1453 155.052 25.3062 155.052 22.55C155.052 18.1203 152.892 15.4625 149.357 15.4625C144.054 15.4625 141.01 20.5812 141.01 25.8969C141.01 30.0312 142.876 34.2641 147 36.3313C143.563 44.1078 138.555 51.1953 136.591 51.1953C134.136 51.1953 133.351 39.0875 133.547 30.425C133.645 25.5031 134.038 25.2078 134.038 23.7313C134.038 22.8453 133.449 22.2547 131.19 22.2547C125.986 22.2547 124.317 26.6844 124.12 31.8031C124.022 33.7719 123.727 35.6422 123.236 37.5125C121.076 45.2891 116.559 51.2937 113.613 51.2937C112.238 51.2937 111.846 49.9156 111.846 48.1438C111.846 42.5328 114.988 35.4453 114.988 29.4406C114.988 25.0109 113.024 22.2547 109.391 22.2547C105.07 22.2547 99.4729 27.3734 94.0722 36.9219C95.8397 29.6375 96.5271 22.55 91.3226 22.55C90.1443 22.55 89.0641 22.8453 88.0822 23.4359C87.3948 23.7312 87.002 24.4203 87.002 25.2078C87.493 32.9844 80.7174 52.9672 74.3347 52.9672C73.1563 52.9672 72.5671 51.6875 72.5671 49.6203C72.5671 44.0094 75.9058 32.0984 77.5751 26.5859C77.7715 25.8969 77.8697 25.3062 77.8697 24.7156C77.8697 23.2391 76.986 22.4516 74.8256 22.4516C72.5671 22.4516 70.014 23.3375 67.6573 27.5703C66.7736 23.8297 64.3186 22.2547 60.7836 22.2547C54.99 22.2547 48.6072 28.3578 45.7595 36.3313C41.9299 46.9625 34.3687 57.2984 24.0581 57.2984C14.7295 57.2984 9.81964 49.5219 9.81964 37.2172C9.81964 19.4 22.8798 4.92969 32.503 4.92969C37.1182 4.92969 39.2786 7.88281 39.2786 12.4109C39.2786 17.9234 36.2345 20.3844 36.2345 22.55C36.2345 23.1406 36.7255 23.8297 37.8056 23.8297C42.0281 23.8297 46.9379 18.9078 46.9379 12.1156C46.9379 5.32344 41.6353 0.5 32.012 0.5C16.006 0.5 0 16.5453 0 37.2172C0 53.6562 8.0521 63.5 21.996 63.5C31.521 63.5 39.8677 56.1172 44.2866 47.4547C44.7776 54.6406 48.018 58.3812 53.0261 58.3812C57.4449 58.3812 60.98 55.7234 63.7295 51.0969C64.8096 55.9203 67.5591 58.2828 71.1924 58.2828C75.3166 58.2828 78.8517 55.625 82.0922 50.8016C82.0922 54.6406 82.8778 58.2828 86.2164 58.2828C87.7876 58.2828 89.6533 57.8891 89.9479 56.5109C93.483 42.0406 102.124 30.1297 104.776 30.1297C105.561 30.1297 105.758 30.9172 105.758 31.8031C105.758 35.7406 103.008 43.8125 103.008 48.9313C103.008 54.5422 105.365 58.1844 110.275 58.1844C115.675 58.1844 121.174 51.5891 124.808 41.8438C125.986 50.9 128.441 58.1844 132.271 58.1844C136.984 58.1844 145.527 48.1437 150.633 37.5125C152.597 37.8078 155.641 37.7094 158.587 35.6422C157.311 38.7922 156.623 42.2375 156.623 45.5844C156.623 55.4281 161.337 58.1844 165.363 58.1844C169.782 58.1844 173.317 55.5266 176.066 50.9C176.95 55.0344 179.307 58.0859 183.529 58.0859C190.108 58.0859 195.902 51.2938 195.902 45.6828C196 44.5016 195.313 43.5172 194.625 43.5172ZM57.1503 52.8688C54.499 52.8688 53.4188 50.2109 53.4188 46.175C53.4188 39.1859 58.2305 27.4719 63.2385 27.4719C65.3988 27.4719 66.2826 30.0312 66.2826 33.2797C66.2826 40.3672 61.7655 52.8688 57.1503 52.8688ZM148.768 32C147.196 30.1297 146.607 27.4719 146.607 25.2078C146.607 22.3531 147.687 19.9906 148.866 19.9906C150.044 19.9906 150.535 21.1719 150.535 22.9437C150.437 25.7 149.455 29.9328 148.768 32ZM169.487 52.8688C166.836 52.8688 165.756 49.7188 165.756 46.175C165.756 39.3828 170.567 27.4719 175.575 27.4719C177.735 27.4719 178.521 30.0312 178.521 33.2797C178.619 40.3672 174.2 52.8688 169.487 52.8688Z" fill="url(#paint0_linear_2425_1032)"/>
<path id="Vector_2" d="M194.625 43.5172C194.331 43.5172 194.036 43.7141 193.84 44.2063C191.876 49.9156 189.126 53.3609 186.868 53.3609C185.591 53.3609 185.1 51.8844 185.1 49.7188C185.1 44.1078 188.439 32.1969 190.108 26.6844C190.305 25.9953 190.403 25.4047 190.403 24.9125C190.403 23.3375 189.519 22.55 187.359 22.55C185.1 22.55 182.547 23.4359 180.19 27.6688C179.405 23.9281 176.852 22.3531 173.317 22.3531C169.291 22.3531 165.363 25.0109 162.122 29.2438C158.882 33.4766 155.052 34.8547 152.204 34.1656C154.267 29.1453 155.052 25.3062 155.052 22.55C155.052 18.1203 152.892 15.4625 149.357 15.4625C144.054 15.4625 141.01 20.5812 141.01 25.8969C141.01 30.0312 142.876 34.2641 147 36.3313C143.563 44.1078 138.555 51.1953 136.591 51.1953C134.136 51.1953 133.351 39.0875 133.547 30.425C133.645 25.5031 134.038 25.2078 134.038 23.7313C134.038 22.8453 133.449 22.2547 131.19 22.2547C125.986 22.2547 124.317 26.6844 124.12 31.8031C124.022 33.7719 123.727 35.6422 123.236 37.5125C121.076 45.2891 116.559 51.2937 113.613 51.2937C112.238 51.2937 111.846 49.9156 111.846 48.1438C111.846 42.5328 114.988 35.4453 114.988 29.4406C114.988 25.0109 113.024 22.2547 109.391 22.2547C105.07 22.2547 99.4729 27.3734 94.0722 36.9219C95.8397 29.6375 96.5271 22.55 91.3226 22.55C90.1443 22.55 89.0641 22.8453 88.0822 23.4359C87.3948 23.7312 87.002 24.4203 87.002 25.2078C87.493 32.9844 80.7174 52.9672 74.3347 52.9672C73.1563 52.9672 72.5671 51.6875 72.5671 49.6203C72.5671 44.0094 75.9058 32.0984 77.5751 26.5859C77.7715 25.8969 77.8697 25.3062 77.8697 24.7156C77.8697 23.2391 76.986 22.4516 74.8256 22.4516C72.5671 22.4516 70.014 23.3375 67.6573 27.5703C66.7736 23.8297 64.3186 22.2547 60.7836 22.2547C54.99 22.2547 48.6072 28.3578 45.7595 36.3313C41.9299 46.9625 34.3687 57.2984 24.0581 57.2984C14.7295 57.2984 9.81964 49.5219 9.81964 37.2172C9.81964 19.4 22.8798 4.92969 32.503 4.92969C37.1182 4.92969 39.2786 7.88281 39.2786 12.4109C39.2786 17.9234 36.2345 20.3844 36.2345 22.55C36.2345 23.1406 36.7255 23.8297 37.8056 23.8297C42.0281 23.8297 46.9379 18.9078 46.9379 12.1156C46.9379 5.32344 41.6353 0.5 32.012 0.5C16.006 0.5 0 16.5453 0 37.2172C0 53.6562 8.0521 63.5 21.996 63.5C31.521 63.5 39.8677 56.1172 44.2866 47.4547C44.7776 54.6406 48.018 58.3812 53.0261 58.3812C57.4449 58.3812 60.98 55.7234 63.7295 51.0969C64.8096 55.9203 67.5591 58.2828 71.1924 58.2828C75.3166 58.2828 78.8517 55.625 82.0922 50.8016C82.0922 54.6406 82.8778 58.2828 86.2164 58.2828C87.7876 58.2828 89.6533 57.8891 89.9479 56.5109C93.483 42.0406 102.124 30.1297 104.776 30.1297C105.561 30.1297 105.758 30.9172 105.758 31.8031C105.758 35.7406 103.008 43.8125 103.008 48.9313C103.008 54.5422 105.365 58.1844 110.275 58.1844C115.675 58.1844 121.174 51.5891 124.808 41.8438C125.986 50.9 128.441 58.1844 132.271 58.1844C136.984 58.1844 145.527 48.1437 150.633 37.5125C152.597 37.8078 155.641 37.7094 158.587 35.6422C157.311 38.7922 156.623 42.2375 156.623 45.5844C156.623 55.4281 161.337 58.1844 165.363 58.1844C169.782 58.1844 173.317 55.5266 176.066 50.9C176.95 55.0344 179.307 58.0859 183.529 58.0859C190.108 58.0859 195.902 51.2938 195.902 45.6828C196 44.5016 195.313 43.5172 194.625 43.5172ZM57.1503 52.8688C54.499 52.8688 53.4188 50.2109 53.4188 46.175C53.4188 39.1859 58.2305 27.4719 63.2385 27.4719C65.3988 27.4719 66.2826 30.0312 66.2826 33.2797C66.2826 40.3672 61.7655 52.8688 57.1503 52.8688ZM148.768 32C147.196 30.1297 146.607 27.4719 146.607 25.2078C146.607 22.3531 147.687 19.9906 148.866 19.9906C150.044 19.9906 150.535 21.1719 150.535 22.9437C150.437 25.7 149.455 29.9328 148.768 32ZM169.487 52.8688C166.836 52.8688 165.756 49.7188 165.756 46.175C165.756 39.3828 170.567 27.4719 175.575 27.4719C177.735 27.4719 178.521 30.0312 178.521 33.2797C178.619 40.3672 174.2 52.8688 169.487 52.8688Z" fill="url(#paint1_radial_2425_1032)"/>
<path id="Vector_3" d="M194.625 43.5172C194.331 43.5172 194.036 43.7141 193.84 44.2063C191.876 49.9156 189.126 53.3609 186.868 53.3609C185.591 53.3609 185.1 51.8844 185.1 49.7188C185.1 44.1078 188.439 32.1969 190.108 26.6844C190.305 25.9953 190.403 25.4047 190.403 24.9125C190.403 23.3375 189.519 22.55 187.359 22.55C185.1 22.55 182.547 23.4359 180.19 27.6688C179.405 23.9281 176.852 22.3531 173.317 22.3531C169.291 22.3531 165.363 25.0109 162.122 29.2438C158.882 33.4766 155.052 34.8547 152.204 34.1656C154.267 29.1453 155.052 25.3062 155.052 22.55C155.052 18.1203 152.892 15.4625 149.357 15.4625C144.054 15.4625 141.01 20.5812 141.01 25.8969C141.01 30.0312 142.876 34.2641 147 36.3313C143.563 44.1078 138.555 51.1953 136.591 51.1953C134.136 51.1953 133.351 39.0875 133.547 30.425C133.645 25.5031 134.038 25.2078 134.038 23.7313C134.038 22.8453 133.449 22.2547 131.19 22.2547C125.986 22.2547 124.317 26.6844 124.12 31.8031C124.022 33.7719 123.727 35.6422 123.236 37.5125C121.076 45.2891 116.559 51.2937 113.613 51.2937C112.238 51.2937 111.846 49.9156 111.846 48.1438C111.846 42.5328 114.988 35.4453 114.988 29.4406C114.988 25.0109 113.024 22.2547 109.391 22.2547C105.07 22.2547 99.4729 27.3734 94.0722 36.9219C95.8397 29.6375 96.5271 22.55 91.3226 22.55C90.1443 22.55 89.0641 22.8453 88.0822 23.4359C87.3948 23.7312 87.002 24.4203 87.002 25.2078C87.493 32.9844 80.7174 52.9672 74.3347 52.9672C73.1563 52.9672 72.5671 51.6875 72.5671 49.6203C72.5671 44.0094 75.9058 32.0984 77.5751 26.5859C77.7715 25.8969 77.8697 25.3062 77.8697 24.7156C77.8697 23.2391 76.986 22.4516 74.8256 22.4516C72.5671 22.4516 70.014 23.3375 67.6573 27.5703C66.7736 23.8297 64.3186 22.2547 60.7836 22.2547C54.99 22.2547 48.6072 28.3578 45.7595 36.3313C41.9299 46.9625 34.3687 57.2984 24.0581 57.2984C14.7295 57.2984 9.81964 49.5219 9.81964 37.2172C9.81964 19.4 22.8798 4.92969 32.503 4.92969C37.1182 4.92969 39.2786 7.88281 39.2786 12.4109C39.2786 17.9234 36.2345 20.3844 36.2345 22.55C36.2345 23.1406 36.7255 23.8297 37.8056 23.8297C42.0281 23.8297 46.9379 18.9078 46.9379 12.1156C46.9379 5.32344 41.6353 0.5 32.012 0.5C16.006 0.5 0 16.5453 0 37.2172C0 53.6562 8.0521 63.5 21.996 63.5C31.521 63.5 39.8677 56.1172 44.2866 47.4547C44.7776 54.6406 48.018 58.3812 53.0261 58.3812C57.4449 58.3812 60.98 55.7234 63.7295 51.0969C64.8096 55.9203 67.5591 58.2828 71.1924 58.2828C75.3166 58.2828 78.8517 55.625 82.0922 50.8016C82.0922 54.6406 82.8778 58.2828 86.2164 58.2828C87.7876 58.2828 89.6533 57.8891 89.9479 56.5109C93.483 42.0406 102.124 30.1297 104.776 30.1297C105.561 30.1297 105.758 30.9172 105.758 31.8031C105.758 35.7406 103.008 43.8125 103.008 48.9313C103.008 54.5422 105.365 58.1844 110.275 58.1844C115.675 58.1844 121.174 51.5891 124.808 41.8438C125.986 50.9 128.441 58.1844 132.271 58.1844C136.984 58.1844 145.527 48.1437 150.633 37.5125C152.597 37.8078 155.641 37.7094 158.587 35.6422C157.311 38.7922 156.623 42.2375 156.623 45.5844C156.623 55.4281 161.337 58.1844 165.363 58.1844C169.782 58.1844 173.317 55.5266 176.066 50.9C176.95 55.0344 179.307 58.0859 183.529 58.0859C190.108 58.0859 195.902 51.2938 195.902 45.6828C196 44.5016 195.313 43.5172 194.625 43.5172ZM57.1503 52.8688C54.499 52.8688 53.4188 50.2109 53.4188 46.175C53.4188 39.1859 58.2305 27.4719 63.2385 27.4719C65.3988 27.4719 66.2826 30.0312 66.2826 33.2797C66.2826 40.3672 61.7655 52.8688 57.1503 52.8688ZM148.768 32C147.196 30.1297 146.607 27.4719 146.607 25.2078C146.607 22.3531 147.687 19.9906 148.866 19.9906C150.044 19.9906 150.535 21.1719 150.535 22.9437C150.437 25.7 149.455 29.9328 148.768 32ZM169.487 52.8688C166.836 52.8688 165.756 49.7188 165.756 46.175C165.756 39.3828 170.567 27.4719 175.575 27.4719C177.735 27.4719 178.521 30.0312 178.521 33.2797C178.619 40.3672 174.2 52.8688 169.487 52.8688Z" fill="url(#paint2_radial_2425_1032)"/>
<path id="Vector_4" d="M194.625 43.5172C194.331 43.5172 194.036 43.7141 193.84 44.2063C191.876 49.9156 189.126 53.3609 186.868 53.3609C185.591 53.3609 185.1 51.8844 185.1 49.7188C185.1 44.1078 188.439 32.1969 190.108 26.6844C190.305 25.9953 190.403 25.4047 190.403 24.9125C190.403 23.3375 189.519 22.55 187.359 22.55C185.1 22.55 182.547 23.4359 180.19 27.6688C179.405 23.9281 176.852 22.3531 173.317 22.3531C169.291 22.3531 165.363 25.0109 162.122 29.2438C158.882 33.4766 155.052 34.8547 152.204 34.1656C154.267 29.1453 155.052 25.3062 155.052 22.55C155.052 18.1203 152.892 15.4625 149.357 15.4625C144.054 15.4625 141.01 20.5812 141.01 25.8969C141.01 30.0312 142.876 34.2641 147 36.3313C143.563 44.1078 138.555 51.1953 136.591 51.1953C134.136 51.1953 133.351 39.0875 133.547 30.425C133.645 25.5031 134.038 25.2078 134.038 23.7313C134.038 22.8453 133.449 22.2547 131.19 22.2547C125.986 22.2547 124.317 26.6844 124.12 31.8031C124.022 33.7719 123.727 35.6422 123.236 37.5125C121.076 45.2891 116.559 51.2937 113.613 51.2937C112.238 51.2937 111.846 49.9156 111.846 48.1438C111.846 42.5328 114.988 35.4453 114.988 29.4406C114.988 25.0109 113.024 22.2547 109.391 22.2547C105.07 22.2547 99.4729 27.3734 94.0722 36.9219C95.8397 29.6375 96.5271 22.55 91.3226 22.55C90.1443 22.55 89.0641 22.8453 88.0822 23.4359C87.3948 23.7312 87.002 24.4203 87.002 25.2078C87.493 32.9844 80.7174 52.9672 74.3347 52.9672C73.1563 52.9672 72.5671 51.6875 72.5671 49.6203C72.5671 44.0094 75.9058 32.0984 77.5751 26.5859C77.7715 25.8969 77.8697 25.3062 77.8697 24.7156C77.8697 23.2391 76.986 22.4516 74.8256 22.4516C72.5671 22.4516 70.014 23.3375 67.6573 27.5703C66.7736 23.8297 64.3186 22.2547 60.7836 22.2547C54.99 22.2547 48.6072 28.3578 45.7595 36.3313C41.9299 46.9625 34.3687 57.2984 24.0581 57.2984C14.7295 57.2984 9.81964 49.5219 9.81964 37.2172C9.81964 19.4 22.8798 4.92969 32.503 4.92969C37.1182 4.92969 39.2786 7.88281 39.2786 12.4109C39.2786 17.9234 36.2345 20.3844 36.2345 22.55C36.2345 23.1406 36.7255 23.8297 37.8056 23.8297C42.0281 23.8297 46.9379 18.9078 46.9379 12.1156C46.9379 5.32344 41.6353 0.5 32.012 0.5C16.006 0.5 0 16.5453 0 37.2172C0 53.6562 8.0521 63.5 21.996 63.5C31.521 63.5 39.8677 56.1172 44.2866 47.4547C44.7776 54.6406 48.018 58.3812 53.0261 58.3812C57.4449 58.3812 60.98 55.7234 63.7295 51.0969C64.8096 55.9203 67.5591 58.2828 71.1924 58.2828C75.3166 58.2828 78.8517 55.625 82.0922 50.8016C82.0922 54.6406 82.8778 58.2828 86.2164 58.2828C87.7876 58.2828 89.6533 57.8891 89.9479 56.5109C93.483 42.0406 102.124 30.1297 104.776 30.1297C105.561 30.1297 105.758 30.9172 105.758 31.8031C105.758 35.7406 103.008 43.8125 103.008 48.9313C103.008 54.5422 105.365 58.1844 110.275 58.1844C115.675 58.1844 121.174 51.5891 124.808 41.8438C125.986 50.9 128.441 58.1844 132.271 58.1844C136.984 58.1844 145.527 48.1437 150.633 37.5125C152.597 37.8078 155.641 37.7094 158.587 35.6422C157.311 38.7922 156.623 42.2375 156.623 45.5844C156.623 55.4281 161.337 58.1844 165.363 58.1844C169.782 58.1844 173.317 55.5266 176.066 50.9C176.95 55.0344 179.307 58.0859 183.529 58.0859C190.108 58.0859 195.902 51.2938 195.902 45.6828C196 44.5016 195.313 43.5172 194.625 43.5172ZM57.1503 52.8688C54.499 52.8688 53.4188 50.2109 53.4188 46.175C53.4188 39.1859 58.2305 27.4719 63.2385 27.4719C65.3988 27.4719 66.2826 30.0312 66.2826 33.2797C66.2826 40.3672 61.7655 52.8688 57.1503 52.8688ZM148.768 32C147.196 30.1297 146.607 27.4719 146.607 25.2078C146.607 22.3531 147.687 19.9906 148.866 19.9906C150.044 19.9906 150.535 21.1719 150.535 22.9437C150.437 25.7 149.455 29.9328 148.768 32ZM169.487 52.8688C166.836 52.8688 165.756 49.7188 165.756 46.175C165.756 39.3828 170.567 27.4719 175.575 27.4719C177.735 27.4719 178.521 30.0312 178.521 33.2797C178.619 40.3672 174.2 52.8688 169.487 52.8688Z" fill="url(#paint3_radial_2425_1032)"/>
<path id="Vector_5" d="M194.625 43.5172C194.331 43.5172 194.036 43.7141 193.84 44.2063C191.876 49.9156 189.126 53.3609 186.868 53.3609C185.591 53.3609 185.1 51.8844 185.1 49.7188C185.1 44.1078 188.439 32.1969 190.108 26.6844C190.305 25.9953 190.403 25.4047 190.403 24.9125C190.403 23.3375 189.519 22.55 187.359 22.55C185.1 22.55 182.547 23.4359 180.19 27.6688C179.405 23.9281 176.852 22.3531 173.317 22.3531C169.291 22.3531 165.363 25.0109 162.122 29.2438C158.882 33.4766 155.052 34.8547 152.204 34.1656C154.267 29.1453 155.052 25.3062 155.052 22.55C155.052 18.1203 152.892 15.4625 149.357 15.4625C144.054 15.4625 141.01 20.5812 141.01 25.8969C141.01 30.0312 142.876 34.2641 147 36.3313C143.563 44.1078 138.555 51.1953 136.591 51.1953C134.136 51.1953 133.351 39.0875 133.547 30.425C133.645 25.5031 134.038 25.2078 134.038 23.7313C134.038 22.8453 133.449 22.2547 131.19 22.2547C125.986 22.2547 124.317 26.6844 124.12 31.8031C124.022 33.7719 123.727 35.6422 123.236 37.5125C121.076 45.2891 116.559 51.2937 113.613 51.2937C112.238 51.2937 111.846 49.9156 111.846 48.1438C111.846 42.5328 114.988 35.4453 114.988 29.4406C114.988 25.0109 113.024 22.2547 109.391 22.2547C105.07 22.2547 99.4729 27.3734 94.0722 36.9219C95.8397 29.6375 96.5271 22.55 91.3226 22.55C90.1443 22.55 89.0641 22.8453 88.0822 23.4359C87.3948 23.7312 87.002 24.4203 87.002 25.2078C87.493 32.9844 80.7174 52.9672 74.3347 52.9672C73.1563 52.9672 72.5671 51.6875 72.5671 49.6203C72.5671 44.0094 75.9058 32.0984 77.5751 26.5859C77.7715 25.8969 77.8697 25.3062 77.8697 24.7156C77.8697 23.2391 76.986 22.4516 74.8256 22.4516C72.5671 22.4516 70.014 23.3375 67.6573 27.5703C66.7736 23.8297 64.3186 22.2547 60.7836 22.2547C54.99 22.2547 48.6072 28.3578 45.7595 36.3313C41.9299 46.9625 34.3687 57.2984 24.0581 57.2984C14.7295 57.2984 9.81964 49.5219 9.81964 37.2172C9.81964 19.4 22.8798 4.92969 32.503 4.92969C37.1182 4.92969 39.2786 7.88281 39.2786 12.4109C39.2786 17.9234 36.2345 20.3844 36.2345 22.55C36.2345 23.1406 36.7255 23.8297 37.8056 23.8297C42.0281 23.8297 46.9379 18.9078 46.9379 12.1156C46.9379 5.32344 41.6353 0.5 32.012 0.5C16.006 0.5 0 16.5453 0 37.2172C0 53.6562 8.0521 63.5 21.996 63.5C31.521 63.5 39.8677 56.1172 44.2866 47.4547C44.7776 54.6406 48.018 58.3812 53.0261 58.3812C57.4449 58.3812 60.98 55.7234 63.7295 51.0969C64.8096 55.9203 67.5591 58.2828 71.1924 58.2828C75.3166 58.2828 78.8517 55.625 82.0922 50.8016C82.0922 54.6406 82.8778 58.2828 86.2164 58.2828C87.7876 58.2828 89.6533 57.8891 89.9479 56.5109C93.483 42.0406 102.124 30.1297 104.776 30.1297C105.561 30.1297 105.758 30.9172 105.758 31.8031C105.758 35.7406 103.008 43.8125 103.008 48.9313C103.008 54.5422 105.365 58.1844 110.275 58.1844C115.675 58.1844 121.174 51.5891 124.808 41.8438C125.986 50.9 128.441 58.1844 132.271 58.1844C136.984 58.1844 145.527 48.1437 150.633 37.5125C152.597 37.8078 155.641 37.7094 158.587 35.6422C157.311 38.7922 156.623 42.2375 156.623 45.5844C156.623 55.4281 161.337 58.1844 165.363 58.1844C169.782 58.1844 173.317 55.5266 176.066 50.9C176.95 55.0344 179.307 58.0859 183.529 58.0859C190.108 58.0859 195.902 51.2938 195.902 45.6828C196 44.5016 195.313 43.5172 194.625 43.5172ZM57.1503 52.8688C54.499 52.8688 53.4188 50.2109 53.4188 46.175C53.4188 39.1859 58.2305 27.4719 63.2385 27.4719C65.3988 27.4719 66.2826 30.0312 66.2826 33.2797C66.2826 40.3672 61.7655 52.8688 57.1503 52.8688ZM148.768 32C147.196 30.1297 146.607 27.4719 146.607 25.2078C146.607 22.3531 147.687 19.9906 148.866 19.9906C150.044 19.9906 150.535 21.1719 150.535 22.9437C150.437 25.7 149.455 29.9328 148.768 32ZM169.487 52.8688C166.836 52.8688 165.756 49.7188 165.756 46.175C165.756 39.3828 170.567 27.4719 175.575 27.4719C177.735 27.4719 178.521 30.0312 178.521 33.2797C178.619 40.3672 174.2 52.8688 169.487 52.8688Z" fill="url(#paint4_radial_2425_1032)"/>
<path id="Vector_6" d="M194.625 43.5172C194.331 43.5172 194.036 43.7141 193.84 44.2063C191.876 49.9156 189.126 53.3609 186.868 53.3609C185.591 53.3609 185.1 51.8844 185.1 49.7188C185.1 44.1078 188.439 32.1969 190.108 26.6844C190.305 25.9953 190.403 25.4047 190.403 24.9125C190.403 23.3375 189.519 22.55 187.359 22.55C185.1 22.55 182.547 23.4359 180.19 27.6688C179.405 23.9281 176.852 22.3531 173.317 22.3531C169.291 22.3531 165.363 25.0109 162.122 29.2438C158.882 33.4766 155.052 34.8547 152.204 34.1656C154.267 29.1453 155.052 25.3062 155.052 22.55C155.052 18.1203 152.892 15.4625 149.357 15.4625C144.054 15.4625 141.01 20.5812 141.01 25.8969C141.01 30.0312 142.876 34.2641 147 36.3313C143.563 44.1078 138.555 51.1953 136.591 51.1953C134.136 51.1953 133.351 39.0875 133.547 30.425C133.645 25.5031 134.038 25.2078 134.038 23.7313C134.038 22.8453 133.449 22.2547 131.19 22.2547C125.986 22.2547 124.317 26.6844 124.12 31.8031C124.022 33.7719 123.727 35.6422 123.236 37.5125C121.076 45.2891 116.559 51.2937 113.613 51.2937C112.238 51.2937 111.846 49.9156 111.846 48.1438C111.846 42.5328 114.988 35.4453 114.988 29.4406C114.988 25.0109 113.024 22.2547 109.391 22.2547C105.07 22.2547 99.4729 27.3734 94.0722 36.9219C95.8397 29.6375 96.5271 22.55 91.3226 22.55C90.1443 22.55 89.0641 22.8453 88.0822 23.4359C87.3948 23.7312 87.002 24.4203 87.002 25.2078C87.493 32.9844 80.7174 52.9672 74.3347 52.9672C73.1563 52.9672 72.5671 51.6875 72.5671 49.6203C72.5671 44.0094 75.9058 32.0984 77.5751 26.5859C77.7715 25.8969 77.8697 25.3062 77.8697 24.7156C77.8697 23.2391 76.986 22.4516 74.8256 22.4516C72.5671 22.4516 70.014 23.3375 67.6573 27.5703C66.7736 23.8297 64.3186 22.2547 60.7836 22.2547C54.99 22.2547 48.6072 28.3578 45.7595 36.3313C41.9299 46.9625 34.3687 57.2984 24.0581 57.2984C14.7295 57.2984 9.81964 49.5219 9.81964 37.2172C9.81964 19.4 22.8798 4.92969 32.503 4.92969C37.1182 4.92969 39.2786 7.88281 39.2786 12.4109C39.2786 17.9234 36.2345 20.3844 36.2345 22.55C36.2345 23.1406 36.7255 23.8297 37.8056 23.8297C42.0281 23.8297 46.9379 18.9078 46.9379 12.1156C46.9379 5.32344 41.6353 0.5 32.012 0.5C16.006 0.5 0 16.5453 0 37.2172C0 53.6562 8.0521 63.5 21.996 63.5C31.521 63.5 39.8677 56.1172 44.2866 47.4547C44.7776 54.6406 48.018 58.3812 53.0261 58.3812C57.4449 58.3812 60.98 55.7234 63.7295 51.0969C64.8096 55.9203 67.5591 58.2828 71.1924 58.2828C75.3166 58.2828 78.8517 55.625 82.0922 50.8016C82.0922 54.6406 82.8778 58.2828 86.2164 58.2828C87.7876 58.2828 89.6533 57.8891 89.9479 56.5109C93.483 42.0406 102.124 30.1297 104.776 30.1297C105.561 30.1297 105.758 30.9172 105.758 31.8031C105.758 35.7406 103.008 43.8125 103.008 48.9313C103.008 54.5422 105.365 58.1844 110.275 58.1844C115.675 58.1844 121.174 51.5891 124.808 41.8438C125.986 50.9 128.441 58.1844 132.271 58.1844C136.984 58.1844 145.527 48.1437 150.633 37.5125C152.597 37.8078 155.641 37.7094 158.587 35.6422C157.311 38.7922 156.623 42.2375 156.623 45.5844C156.623 55.4281 161.337 58.1844 165.363 58.1844C169.782 58.1844 173.317 55.5266 176.066 50.9C176.95 55.0344 179.307 58.0859 183.529 58.0859C190.108 58.0859 195.902 51.2938 195.902 45.6828C196 44.5016 195.313 43.5172 194.625 43.5172ZM57.1503 52.8688C54.499 52.8688 53.4188 50.2109 53.4188 46.175C53.4188 39.1859 58.2305 27.4719 63.2385 27.4719C65.3988 27.4719 66.2826 30.0312 66.2826 33.2797C66.2826 40.3672 61.7655 52.8688 57.1503 52.8688ZM148.768 32C147.196 30.1297 146.607 27.4719 146.607 25.2078C146.607 22.3531 147.687 19.9906 148.866 19.9906C150.044 19.9906 150.535 21.1719 150.535 22.9437C150.437 25.7 149.455 29.9328 148.768 32ZM169.487 52.8688C166.836 52.8688 165.756 49.7188 165.756 46.175C165.756 39.3828 170.567 27.4719 175.575 27.4719C177.735 27.4719 178.521 30.0312 178.521 33.2797C178.619 40.3672 174.2 52.8688 169.487 52.8688Z" fill="url(#paint5_radial_2425_1032)"/>
</g>
</g>
<defs>
<linearGradient id="paint0_linear_2425_1032" x1="193.831" y1="64.5881" x2="30.7461" y2="25.8721" gradientUnits="userSpaceOnUse">
<stop stop-color="#7D2AE7"/>
<stop offset="0.7708" stop-color="#7D2AE7"/>
<stop offset="1" stop-color="#7D2AE7" stop-opacity="0"/>
</linearGradient>
<radialGradient id="paint1_radial_2425_1032" cx="0" cy="0" r="1" gradientUnits="userSpaceOnUse" gradientTransform="translate(100.339 70.3325) rotate(-45.8771) scale(59.1102 39.2809)">
<stop stop-color="#6420FF"/>
<stop offset="1" stop-color="#6420FF" stop-opacity="0"/>
</radialGradient>
<radialGradient id="paint2_radial_2425_1032" cx="0" cy="0" r="1" gradientUnits="userSpaceOnUse" gradientTransform="translate(4.69046 42.4583) rotate(5.10069) scale(114.898 91.7975)">
<stop offset="0.25" stop-color="#00C4CC"/>
<stop offset="1" stop-color="#00C4CC" stop-opacity="0"/>
</radialGradient>
<radialGradient id="paint3_radial_2425_1032" cx="0" cy="0" r="1" gradientUnits="userSpaceOnUse" gradientTransform="translate(83.6424 63.453) rotate(-38.918) scale(74.1118 50.7017)">
<stop stop-color="#6420FF"/>
<stop offset="1" stop-color="#6420FF" stop-opacity="0"/>
</radialGradient>
<radialGradient id="paint4_radial_2425_1032" cx="0" cy="0" r="1" gradientUnits="userSpaceOnUse" gradientTransform="translate(10.9794 74.4477) rotate(-34.3327) scale(86.3805 59.1172)">
<stop stop-color="#6420FF"/>
<stop offset="1" stop-color="#6420FF" stop-opacity="0"/>
</radialGradient>
<radialGradient id="paint5_radial_2425_1032" cx="0" cy="0" r="1" gradientUnits="userSpaceOnUse" gradientTransform="translate(18.8582 6.27273) rotate(12.5014) scale(170.614 209.718)">
<stop stop-color="#00C4CC"/>
<stop offset="1" stop-color="#00C4CC" stop-opacity="0"/>
</radialGradient>
<clipPath id="clip0_2425_1032">
<rect width="196" height="63" fill="white" transform="translate(0 0.5)"/>
</clipPath>
</defs>
</svg>
