<svg width="24" height="24" viewBox="0 0 24 24" fill="none" xmlns="http://www.w3.org/2000/svg">
<g id="Frame">
<path id="Vector" d="M15.3621 5.21391C17.087 5.98468 18.4952 7.32397 19.3514 9.00805C20.2076 10.6921 20.46 12.619 20.0665 14.4668C19.6729 16.3146 18.6573 17.9714 17.1892 19.1605C15.721 20.3496 13.8894 20.9988 12.0001 20.9999C10.3841 20.9998 8.80376 20.5252 7.45516 19.6349C6.10655 18.7445 5.04912 17.4777 4.41412 15.9917C3.77912 14.5057 3.59452 12.866 3.88323 11.276C4.17193 9.68599 4.92124 8.2158 6.03814 7.04791C6.8078 8.12264 7.82339 8.99766 9.00014 9.59991C9.02075 8.27854 9.33266 6.97799 9.91362 5.791C10.4946 4.60401 11.3303 3.55983 12.3611 2.73291C13.1479 3.7881 14.1768 4.63867 15.3611 5.21291L15.3621 5.21391Z" stroke="#FF5722" stroke-width="1.5" stroke-linecap="round" stroke-linejoin="round"/>
<path id="Vector_2" d="M12 18C12.9514 17.9996 13.8671 17.6377 14.5616 16.9874C15.2561 16.3372 15.6775 15.4473 15.7404 14.498C15.8034 13.5487 15.5031 12.611 14.9005 11.8748C14.2979 11.1386 13.438 10.6589 12.495 10.533C11.4626 11.4568 10.7823 12.7099 10.57 14.079C9.79971 13.8905 9.07461 13.5506 8.43703 13.079C8.25189 13.6422 8.20294 14.2414 8.29421 14.8272C8.38548 15.4131 8.61437 15.9689 8.96209 16.4492C9.30981 16.9294 9.76645 17.3204 10.2945 17.59C10.8226 17.8595 11.4071 18 12 18Z" stroke="#FF5722" stroke-width="1.5" stroke-linecap="round" stroke-linejoin="round"/>
</g>
</svg>
