<svg width="15" height="15" viewBox="0 0 26 26" fill="none" xmlns="http://www.w3.org/2000/svg">
<path d="M14.8565 1.18271C14.9642 0.799692 15.5306 0.888754 15.5155 1.28635L15.3892 4.62176C15.226 8.92867 18.0352 12.7863 22.1843 13.9529L25.3976 14.8563C25.7806 14.964 25.6916 15.5304 25.2939 15.5154L21.9585 15.389C17.6516 15.2258 13.794 18.035 12.6274 22.1841L11.724 25.3974C11.6163 25.7804 11.0499 25.6914 11.065 25.2937L11.1913 21.9583C11.3545 17.6514 8.54525 13.7938 4.39612 12.6272L1.1829 11.7238C0.799882 11.6161 0.888944 11.0497 1.28654 11.0648L4.62195 11.1911C8.92886 11.3543 12.7865 8.54506 13.9531 4.39593L14.8565 1.18271Z" fill="white"/>
</svg>
